<svg height='300px' width='300px'  fill="#6b145d" xmlns="http://www.w3.org/2000/svg" xmlns:xlink="http://www.w3.org/1999/xlink" version="1.1" x="0px" y="0px" viewBox="0 0 100 100" enable-background="new 0 0 100 100" xml:space="preserve"><g><path fill="#6b145d" d="M50.413,73.269c-5.581-1.231-9.3-3.478-11.079-5.741c-0.529-0.672-0.866-1.338-1.052-1.984   c-0.109-0.381-0.177-0.756-0.166-1.115c0.026-0.759,0.352-1.582,1.036-2.391c1.031-1.225,2.896-2.421,5.823-3.36   c-2.224-0.545-4.183-1.203-5.9-1.947c-1.992,1.212-3.236,2.546-3.994,3.8c-0.888,1.479-1.122,2.843-1.153,3.752   c-0.052,1.512,0.354,2.986,1.144,4.383c0.333,0.589,0.727,1.164,1.194,1.723c2.625,3.121,7.299,5.664,13.245,6.977   c3.708,0.816,5.377,2.481,5.391,3.769c0.005,0.528-0.28,1.127-0.855,1.713c-0.429,0.437-1.022,0.865-1.794,1.255   c-0.051,0.023-0.104,0.049-0.158,0.072v-0.195v-2.133v-1.269c-0.569-0.383-1.523-0.833-3.034-1.166   c-0.396-0.089-0.771-0.195-1.156-0.293v5.032c-1.892-0.914-2.775-2.073-2.766-3.017c0.007-0.722,0.553-1.554,1.661-2.294   c-1.566-0.449-3.041-0.985-4.414-1.6c-0.993,1.262-1.427,2.623-1.439,3.854c-0.026,2.616,1.835,5.839,6.958,7.571   c0.529,0.181,1.081,0.346,1.681,0.491h0.866c0.587-0.142,1.126-0.302,1.643-0.478c1.192-0.398,2.21-0.881,3.067-1.417   c0.636-0.398,1.197-0.83,1.665-1.277c1.619-1.552,2.279-3.33,2.266-4.891C59.066,78.23,56.771,74.674,50.413,73.269z"></path><path fill="#6b145d" d="M52.094,70.417v-10.37c-0.802-0.181-1.673-0.346-2.638-0.486c-0.532-0.084-1.047-0.17-1.552-0.26v11.1   c0.684,0.229,1.403,0.434,2.144,0.619l0.454-0.121C51.062,70.751,51.586,70.586,52.094,70.417z"></path><path fill="#6b145d" d="M95,23.954v-4.19c-13.931,0-29.627-7.935-29.784-8.016l-1.767-0.902l-0.997,1.718   c-2.574,4.44-7.347,7.2-12.452,7.2c-5.11,0-9.88-2.759-12.452-7.2l-0.997-1.718l-1.769,0.902C34.623,11.829,18.931,19.764,5,19.764   v4.19c12.318,0,25.387-5.514,29.988-7.652c0.648,0.888,1.371,1.711,2.157,2.465c-3.334,1.987-9.767,5.261-16.002,5.261v4.19   c8.373,0,16.609-4.802,19.608-6.752c2.182,1.257,4.613,2.073,7.151,2.365v26.907c0.942,0.216,1.88,0.395,2.793,0.531   c0.48,0.071,0.945,0.148,1.398,0.229V23.831c2.541-0.292,4.974-1.108,7.153-2.365c2.996,1.95,11.234,6.752,19.607,6.752v-4.19   c-6.237,0-12.67-3.276-15.999-5.264c0.783-0.751,1.505-1.575,2.156-2.462C69.612,18.439,82.681,23.954,95,23.954z"></path><path fill="#6b145d" d="M64.295,30.441c-0.38-0.139-3.791-1.298-6.432,0.232c-0.958,0.556-2.176,1.681-2.562,3.902l4.132,0.716   c0.13-0.756,0.42-0.927,0.528-0.99c0.683-0.401,2.143-0.188,2.839,0.053c2.993,1.208,4.688,4.044,4.312,7.23   c-0.442,3.749-3.914,8.152-12.032,10.562c2.405,0.619,4.376,1.384,5.985,2.237c8.447-4.03,9.947-10.103,10.207-12.31   C71.866,37.036,69.093,32.371,64.295,30.441z"></path><path fill="#6b145d" d="M50.386,53.342c-12.064-1.805-16.931-7.258-17.459-11.756c-0.376-3.184,1.314-6.024,4.228-7.2   c0.468-0.163,1.185-0.306,1.831-0.306c0.426,0,0.82,0.062,1.087,0.22c0.111,0.065,0.401,0.236,0.532,0.99l4.128-0.717   c-0.385-2.217-1.604-3.346-2.559-3.898c-1.021-0.593-2.159-0.784-3.196-0.784c-1.641,0-3.029,0.476-3.308,0.578   c-4.725,1.904-7.5,6.566-6.907,11.607c0.343,2.931,2.878,12.698,21.001,15.411c8.83,1.319,12.069,4.452,12.155,6.938   c0.086,2.472-2.701,5.598-8.204,7.647c1.844,0.7,3.3,1.6,4.413,2.61c5.087-2.624,8.115-6.395,7.979-10.401   C66.022,61.687,64.309,55.424,50.386,53.342z"></path></g></svg>