<svg height='300px' width='300px'  fill="#6b145d" xmlns="http://www.w3.org/2000/svg" xmlns:xlink="http://www.w3.org/1999/xlink" version="1.1" x="0px" y="0px" viewBox="0 0 50 50" enable-background="new 0 0 50 50" xml:space="preserve"><g><path d="M48.2,34.4l-2.8-0.7c0-0.1-0.1-0.2-0.1-0.3l1.5-2.4c0.2-0.4,0.2-0.9-0.2-1.2l-2.5-2.6c-0.3-0.3-0.8-0.4-1.2-0.1l-2.5,1.5   c-0.1,0-0.2-0.1-0.3-0.1l-0.6-2.8c-0.1-0.4-0.5-0.8-1-0.8h-3.6c-0.5,0-0.9,0.3-1,0.8l-0.7,2.8c-0.1,0-0.2,0.1-0.3,0.1l-2.4-1.5   c-0.4-0.3-0.9-0.2-1.2,0.1l-2.5,2.6c-0.3,0.3-0.4,0.8-0.1,1.2l1.5,2.5c-0.1,0.1-0.1,0.2-0.1,0.3l-2.8,0.7c-0.4,0.1-0.8,0.5-0.8,1   V39c0,0.5,0.3,0.9,0.8,1l2.8,0.7c0,0.1,0.1,0.2,0.1,0.3l-1.5,2.4c-0.2,0.4-0.2,0.9,0.1,1.2l2.6,2.6c0.3,0.3,0.8,0.4,1.2,0.1   l2.5-1.5c0.1,0,0.2,0.1,0.3,0.1l0.7,2.8c0.1,0.5,0.5,0.8,1,0.8h3.6c0.5,0,0.9-0.3,1-0.8l0.7-2.8c0.1,0,0.2-0.1,0.3-0.1l2.4,1.5   c0.4,0.2,0.9,0.2,1.2-0.2l2.5-2.6c0.3-0.3,0.4-0.8,0.1-1.2l-1.5-2.5c0-0.1,0.1-0.2,0.1-0.3l2.8-0.7c0.5-0.1,0.8-0.5,0.8-1v-3.6   C49,34.9,48.7,34.5,48.2,34.4z M36.7,40.7c-1.9,0-3.5-1.6-3.5-3.5s1.6-3.5,3.5-3.5s3.5,1.6,3.5,3.5S38.6,40.7,36.7,40.7z"></path><path d="M29.7,18.4v-2c0-0.6-0.5-1.1-1.1-1.1H9.4c-0.6,0-1.2,0.5-1.2,1.1v2c0,0.6,0.5,1.1,1.2,1.1h19.2   C29.2,19.5,29.7,19,29.7,18.4z"></path><path d="M14.5,9.3l-0.3-5.1c-3.4,1.7-5.7,5.2-5.7,9.1c0.3-0.1,0.6-0.1,0.9-0.1h19.2c0.3,0,0.6,0.1,0.9,0.1   c-0.1-3.9-2.3-7.4-5.7-9.1l-0.3,5.1c-0.1,1.6-1.4,2.8-3,2.8h-2.9C15.9,12.1,14.6,10.9,14.5,9.3z"></path><path d="M16.1,1.9l0.5,7.3c0,0.5,0.5,0.9,1,0.9h3c0.5,0,0.9-0.4,1-0.9l0.5-7.3c0-0.8-0.4-1.4-1.1-1.4h-3.7   C16.5,0.5,16,1.1,16.1,1.9z"></path><path d="M28.5,21.5H9.5c0.4,5.2,4.6,11.1,9.5,11.1C23.9,32.6,28,26.5,28.5,21.5z"></path><path d="M25.1,42l-0.4-0.1c-1.3-0.3-2.3-1.5-2.3-2.9v-3.6c0-0.6,0.2-1.3,0.6-1.8c-0.4,0-0.8,0-1.1,0h-5.7c-4.1,0-7.9,1.6-10.7,4.4   C2.8,40.7,1.1,44.6,1,48.5c0,0.3,0.1,0.5,0.3,0.7c0.2,0.2,0.4,0.3,0.7,0.3h30.1c0-0.1-0.1-0.2-0.1-0.4l-0.1-0.3L31.6,49   c-0.5,0.3-1,0.5-1.6,0.5c-0.8,0-1.6-0.3-2.1-0.9L25.3,46c-1-0.9-1.2-2.5-0.4-3.7L25.1,42z"></path></g></svg>