<svg height='300px' width='300px'  fill="#6b145d" xmlns:dc="http://purl.org/dc/elements/1.1/" xmlns:cc="http://creativecommons.org/ns#" xmlns:rdf="http://www.w3.org/1999/02/22-rdf-syntax-ns#" xmlns:svg="http://www.w3.org/2000/svg" xmlns="http://www.w3.org/2000/svg" version="1.1" x="0px" y="0px" viewBox="0 0 100 100"><path d="m 49.99573,5.00135 c -8.74998,0.015 -17.10388,3.6494 -23.07962,10.041 l 4.25415,8.9584 c -8.02507,6.733 -13.25619,17.7584 -13.25619,30.218 0,7.8745 0.81066,15.1758 3.78129,21.1831 4.76039,-3.0266 10.11657,-5.0258 15.57043,-6.4092 0.0388,0 0.0771,0.001 0.11533,0 -7.01407,-4.2658 -11.69838,-11.9806 -11.69838,-20.7901 0,-0.6796 0.0286,-1.3527 0.0833,-2.0183 5.34882,0.4399 12.23037,-2.4936 17.88448,-8.1477 0.48869,-0.4887 0.95656,-0.9865 1.40424,-1.4918 2.27527,2.3676 5.02523,4.5682 8.16484,6.4392 7.34594,4.3777 15.13654,5.9469 21.09126,4.7765 0.003,0.1471 0.004,0.2943 0.004,0.4421 0,8.8655 -4.74471,16.6226 -11.83293,20.8713 0.0961,0 0.19387,0 0.29259,0.012 4.75332,1.0205 9.29456,2.8741 13.60344,5.1023 0.42742,0.2215 0.84786,0.4604 1.25901,0.7143 2.77472,-5.9111 3.54102,-13.0278 3.54102,-20.6865 0,-12.126 -4.9547,-22.8937 -12.61755,-29.6682 l 4.52318,-9.523 C 67.10324,8.63645 58.74619,5.00735 49.99547,4.99865 Z m 6.6e-4,2.1864 c 7.54431,-0.026 15.04165,3.0239 20.45783,8.2819 -1.21053,2.5495 -2.42106,5.0989 -3.63159,7.6484 -0.65483,1.3792 -1.3097,2.7583 -1.96452,4.1375 -4.42698,0.2903 -8.85546,0.5569 -13.28449,0.8139 -5.46791,0.1196 -10.91647,-0.452 -16.37447,-0.6842 -0.7543,-1.588 -1.50865,-3.1761 -2.26299,-4.764 -1.13013,-2.3792 -2.2603,-4.7583 -3.39045,-7.1374 5.4074,-5.2655 12.90877,-8.3084 20.45068,-8.2961 z m -1.64089,3.3755 c -0.3313,0 -0.598,0.2667 -0.598,0.598 l 0,3.887 -3.88701,0 c -0.33129,0 -0.598,0.2667 -0.598,0.598 l 0,3.289 c 0,0.3313 0.26671,0.598 0.598,0.598 l 3.88701,0 0,3.887 c 0,0.3313 0.2667,0.598 0.598,0.598 l 3.289,0 c 0.33129,0 0.598,-0.2667 0.598,-0.598 l 0,-3.887 3.887,0 c 0.33129,0 0.598,-0.2667 0.598,-0.598 l 0,-3.289 c 0,-0.3313 -0.26671,-0.598 -0.598,-0.598 l -3.887,0 0,-3.887 c 0,-0.3313 -0.26671,-0.598 -0.598,-0.598 l -3.289,0 z m 14.33492,61.3083 c -3.01847,1.6221 -6.38255,2.683 -9.95357,3.0447 l -3.03498,6.0699 -3.0703,-6.1406 c -3.33667,-0.4175 -6.48318,-1.4468 -9.32306,-2.9729 -0.34985,0.1018 -0.72472,0.2136 -1.11612,0.3331 0.5298,1.4617 1.15813,2.8884 1.88985,4.2677 1.89118,3.4842 4.66793,6.6839 8.39596,8.2424 3.10598,1.2403 6.81459,0.8954 9.60432,-0.9712 3.68351,-2.2838 6.13771,-6.0722 7.81511,-9.9909 0.1874,-0.4485 0.36427,-0.9009 0.53126,-1.3567 -0.62233,-0.1949 -1.20727,-0.3709 -1.73847,-0.5255 z m -27.85174,0.7592 c -4.57569,1.4778 -10.80319,3.9135 -13.85559,6.9838 -3.51118,3.5318 -6.53849,15.3868 -6.53849,15.3868 l 71.1108,0 c 0,0 -3.02838,-11.855 -6.53957,-15.3868 -2.92077,-2.9379 -8.74753,-5.2949 -13.25338,-6.7877 -3.05613,8.3523 -8.81886,13.9829 -15.42574,13.9829 -0.42851,0 -0.8534,-0.024 -1.27429,-0.07 -1.96209,3.2293 -5.51142,5.3871 -9.56621,5.3871 -2.55158,0 -4.90337,-0.8545 -6.7857,-2.2927 a 3.1293825,3.1293825 0 0 1 -1.62681,0.4594 3.1293825,3.1293825 0 0 1 -3.12936,-3.1293 3.1293825,3.1293825 0 0 1 3.12936,-3.1294 3.1293825,3.1293825 0 0 1 3.12935,3.1294 3.1293825,3.1293825 0 0 1 -0.52338,1.7292 c 0.37079,0.2769 0.76144,0.5273 1.1703,0.7465 3.30585,1.785 7.6101,1.4102 10.5997,-0.8574 0.85503,-0.6356 1.58208,-1.4169 2.16795,-2.2931 -5.50161,-1.3144 -10.1713,-6.5687 -12.78894,-13.8583 z m -3.75498,12.598 a 1.9348612,1.9348612 0 0 0 -1.9349,1.9348 1.9348612,1.9348612 0 0 0 1.9349,1.9349 1.9348612,1.9348612 0 0 0 1.93482,-1.9349 1.9348612,1.9348612 0 0 0 -1.93482,-1.9348 z" style="color:#000000;enable-background:accumulate;" display="inline" overflow="visible" visibility="visible" fill="#6b145d" fill-opacity="1" fill-rule="nonzero" stroke="none" marker="none"></path></svg>