<svg height='300px' width='300px'  fill="#6b145d" xmlns="http://www.w3.org/2000/svg" viewBox="0 0 128 128" x="0px" y="0px"><title>Paramedic, ambulance, female, staff, medical, hospital, young</title><path d="M63.994,60.24c-.037,0-3.7-.061-3.7-2.273a1.5,1.5,0,0,1,2.694-.908,4.022,4.022,0,0,0,1,.181,3.96,3.96,0,0,0,.987-.18,1.5,1.5,0,0,1,2.7.907C67.676,60.179,64.031,60.24,63.994,60.24Z"></path><path d="M55.33,51.623a6.716,6.716,0,0,0-2.019-1.255,6.228,6.228,0,0,0-2.319-.5,4,4,0,0,0-2.063.479,3.46,3.46,0,0,1-.976.417,2.984,2.984,0,0,1-1.208.029,3.961,3.961,0,0,1-1.724-.782.827.827,0,0,1,.464-1.49l.062,0a3.934,3.934,0,0,0,1.21-.181,7.418,7.418,0,0,0,.624-.485,6.408,6.408,0,0,1,3.676-1.024,8.156,8.156,0,0,1,3.479.933A7.739,7.739,0,0,1,57.3,50.077a1.251,1.251,0,0,1-1.88,1.636Z"></path><circle cx="51.682" cy="51.532" r="2.525"></circle><path d="M70.276,65.186a2.469,2.469,0,0,0-2.014-.843,22.811,22.811,0,0,1-2.406-.056,31.923,31.923,0,0,0-3.712,0,22.805,22.805,0,0,1-2.406.056h0a2.456,2.456,0,0,0-2.013.843,2.428,2.428,0,0,0-.548,2.1A6.555,6.555,0,0,0,64,72.939a6.555,6.555,0,0,0,6.824-5.657A2.428,2.428,0,0,0,70.276,65.186ZM64,69.939a3.517,3.517,0,0,1-3.708-2.582H60.3c.643,0,1.335-.038,2.009-.075a29.845,29.845,0,0,1,3.384,0c.675.037,1.366.075,2.009.075h.007A3.517,3.517,0,0,1,64,69.939Z"></path><path d="M70.7,50.077a7.728,7.728,0,0,1,2.766-2.312,8.161,8.161,0,0,1,3.48-.933,6.414,6.414,0,0,1,3.675,1.024,7.418,7.418,0,0,0,.624.485,3.934,3.934,0,0,0,1.21.181l.058,0a.827.827,0,0,1,.468,1.49,3.961,3.961,0,0,1-1.724.782,2.984,2.984,0,0,1-1.208-.029,3.46,3.46,0,0,1-.976-.417,4,4,0,0,0-2.063-.479,6.228,6.228,0,0,0-2.319.5,6.716,6.716,0,0,0-2.019,1.255l-.093.09A1.25,1.25,0,0,1,70.7,50.077Z"></path><circle cx="76.318" cy="51.532" r="2.525"></circle><circle cx="42.497" cy="118.694" r="1.561"></circle><path d="M109.855,122.028c-.732-5.01-3.434-12.508-12.145-19.908a66.269,66.269,0,0,0-8.138-5.505,1,1,0,0,0-1.5.674c-.377,2.06-.913,4.472-1.567,7.321-.18.78-.35,1.54-.52,2.26a5.928,5.928,0,0,1-5.6,4.64,5.028,5.028,0,0,1-2.52-.67c-.57-.32-1.09-.63-1.6-.92a38.923,38.923,0,0,0-6.21-3.05,1.481,1.481,0,0,1-.651-2.288,3.9,3.9,0,0,1,.335-.329,1.45,1.45,0,0,1,1.386-.243,49.059,49.059,0,0,1,8.23,4.23,2.142,2.142,0,0,0,1.03.27,2.95,2.95,0,0,0,2.68-2.3c.789-3.515,1.862-7.878,2.378-11.329.033-.221.242-2.081.262-2.441a5.442,5.442,0,0,0-.54-3.07c-.93-1.46-4.55-3.7-6.79-3.51a2.408,2.408,0,0,0-2.07,1.42,15.876,15.876,0,0,1-2.2-5.12,50.108,50.108,0,0,0,6.03-4.08c2.68-2.16,5.52-6.26,7.56-12.36a8.424,8.424,0,0,0,1.01.07,11,11,0,0,0,6.36-2.12,10.18,10.18,0,0,0,4.17-8.34c.02-3.92-1.68-6.04-3.11-7.14a7.3,7.3,0,0,0-.95-.61,6.893,6.893,0,0,0,.52-.56c2.57-3.04,3.19-7.98,1.76-13.89C93.52,16.86,79.75,5.5,63.97,5.5c-15.58,0-30.29,12.1-34.21,28.14a15.2,15.2,0,0,0,1.95,12.19,10.349,10.349,0,0,0,1.41,1.6,8.2,8.2,0,0,0-1.27.76c-1.42,1.1-3.12,3.22-3.1,7.14a10.18,10.18,0,0,0,4.17,8.34,11,11,0,0,0,6.36,2.12,8.448,8.448,0,0,0,1.02-.07A33.169,33.169,0,0,0,44.892,74.9a1.009,1.009,0,0,1-.174,1.4c-3.376,2.627-9.428,2.357-15.308,2.079-5.25-.25-10.21-.48-13.81,1.18-4.14,1.91-6.88,5.69-6.99,9.64a7.964,7.964,0,0,0,.6,3.29c-1.41,3.6-.94,7.09,1.36,9.64a9.825,9.825,0,0,0,4.32,2.74,7.808,7.808,0,0,0,3.32,4.65,7.281,7.281,0,0,0,3.91,1.04,5.441,5.441,0,0,0,.57-.03,28.258,28.258,0,0,0-4.56,11.6,3.5,3.5,0,0,0,3.47,3.97H60.133a2,2,0,0,0,2-2.092c-.27-5.977-.43-16.1.067-19.685a2,2,0,0,0-.575-1.719c-1.154-1.12-2.295-2.272-2.393-2.394,1.22.06,7.79.02,9.38-.05-.05.06-.88.9-1.86,1.86.01,0,.02.01.03.01a7.631,7.631,0,0,0-1.58,2.43c-.678,1.582-.49,13.283-.108,19.765a2,2,0,0,0,2,1.875H106.4a3.48,3.48,0,0,0,3.455-4.072ZM89.85,56.5a4.257,4.257,0,0,1,2.67-.51,1.5,1.5,0,0,0,.65-2.93,6.059,6.059,0,0,0-2.92.09c.1-1.07.17-2.18.23-3.32a7.163,7.163,0,0,0,1.14-.21,4.986,4.986,0,0,1,2.69.95,5.674,5.674,0,0,1,1.93,4.74,7.143,7.143,0,0,1-2.95,5.94,7.967,7.967,0,0,1-4.72,1.54A56.69,56.69,0,0,0,89.85,56.5ZM34.7,61.25a7.118,7.118,0,0,1-2.95-5.94,5.674,5.674,0,0,1,1.93-4.74,5.3,5.3,0,0,1,3.68-.94.737.737,0,0,0,.14.04c.06,1.19.13,2.36.24,3.48a6.179,6.179,0,0,0-2.92-.09,1.484,1.484,0,0,0-1.14,1.78,1.5,1.5,0,0,0,1.79,1.15,4.2,4.2,0,0,1,2.68.52,58.467,58.467,0,0,0,1.28,6.26A7.774,7.774,0,0,1,34.7,61.25Zm5.82-11.34c3.845-.181,5.559-2.322,6.509-5.118a13.641,13.641,0,0,1,3.755-.809,16.559,16.559,0,0,1,5.915.738l.014.005.069.018A1.5,1.5,0,1,0,57.5,41.83a19.365,19.365,0,0,0-6.973-.5,15.618,15.618,0,0,0-2.771.6c.136-.7.257-1.416.374-2.128.59-3.54,1.25-7.56,3.81-10.77a5.142,5.142,0,0,1,.76-.78,1.983,1.983,0,0,1,3.12.92c3.01,8.98,7.23,14.47,12.54,16.32a13.286,13.286,0,0,0,9.96-.7,1.975,1.975,0,0,1,2.45.65,9.643,9.643,0,0,0,6.72,4.26c-.71,14.26-5.36,22.93-9.23,26.04-4.22,3.4-11.22,7.21-14.26,7.21-1.53,0-4.07-.97-6.75-2.36a48.219,48.219,0,0,1-7.51-4.85C45.89,72.64,41.27,64.04,40.52,49.91Zm10.9,69.107a1,1,0,0,1-.633.935c-1.74.682-6.579,2.515-8.3,2.515s-6.556-1.833-8.3-2.515a1,1,0,0,1-.633-.935v-3.089a1.006,1.006,0,0,1,1.006-1.006H50.419a1,1,0,0,1,1.006,1.006ZM58.01,106.87a39.342,39.342,0,0,0-6.21,3.05c-.5.29-1.03.6-1.59.92a5.083,5.083,0,0,1-2.52.67,5.948,5.948,0,0,1-5.61-4.64c-.16-.72-.34-1.48-.52-2.26-.81-3.55-1.44-6.43-1.82-8.78.88-.52,1.9-1.12,2.8-1.64.46,3.56,1.63,8.26,2.47,12.02a2.95,2.95,0,0,0,2.68,2.3,2.142,2.142,0,0,0,1.03-.27c3.36-1.93,5.48-3.27,8.23-4.23a1.468,1.468,0,0,1,1.5.34c.01,0,.01.01.02.02A1.483,1.483,0,0,1,58.01,106.87Zm-1.2-9.82a45.961,45.961,0,0,1-3.73-6.63,18.072,18.072,0,0,0,3.53-6.8c2.72,1.36,5.42,2.33,7.39,2.33s4.65-.97,7.36-2.31a17.887,17.887,0,0,0,3.59,6.8,40.816,40.816,0,0,1-3.84,6.58A108.161,108.161,0,0,1,56.81,97.05ZM86.629,120.1a1.5,1.5,0,0,1-1.551,2.568l-1.328-.8v1.551a1.5,1.5,0,0,1-3,0v-1.551l-1.328.8a1.5,1.5,0,1,1-1.551-2.568l1.475-.891-1.475-.89a1.5,1.5,0,1,1,1.551-2.568l1.328.8V115a1.5,1.5,0,0,1,3,0v1.551l1.328-.8a1.5,1.5,0,1,1,1.551,2.568l-1.475.89Zm7.811-8.909c-1.87-2.33-.8-5.19.76-7.73a37.578,37.578,0,0,1,10.52,14.2C102.7,118.08,97.23,114.68,94.44,111.19Z"></path></svg>