<svg height='300px' width='300px'  fill="#6b145d" xmlns="http://www.w3.org/2000/svg" xmlns:xlink="http://www.w3.org/1999/xlink" version="1.1" x="0px" y="0px" viewBox="0 0 100 100" style="enable-background:new 0 0 100 100;" xml:space="preserve"><path d="M17.225,56.135c-0.704-2.256-0.276-3.712,0.109-3.991c0.896-0.647,1.097-1.897,0.45-2.792  c-0.647-0.896-1.897-1.097-2.792-0.45c-2.089,1.509-2.711,4.816-1.584,8.424c0.267,0.856,1.057,1.405,1.909,1.405  c0.197,0,0.398-0.029,0.596-0.091C16.966,58.311,17.554,57.189,17.225,56.135z"></path><path d="M78.958,10.158c-0.001,0-0.001,0-0.002,0c-0.056,0.019-0.114,0.029-0.169,0.05c-0.056,0.018-0.11,0.045-0.166,0.065  c-0.015,0.007-0.031,0.009-0.047,0.016l-0.034,0.016c-0.211,0.081-0.417,0.175-0.617,0.283L54.705,21.234  c-1.329-0.882-2.894-1.041-4.378-0.36l-10.122,4.641c-1.45,0.664-1.94,1.684-2.096,2.423c-0.067,0.316-0.069,0.622-0.045,0.924  l-26.214,12.02c-0.179,0.071-0.354,0.154-0.527,0.242l-0.43,0.197c-0.22,0.101-0.408,0.242-0.57,0.403  c-0.272,0.046-0.54,0.146-0.784,0.311c-5.292,3.577-6.083,12.425-1.8,20.143c3.047,5.492,7.734,9.457,12.539,10.606  c0.976,0.233,1.934,0.35,2.865,0.35c2.009,0,3.889-0.556,5.558-1.62l18.053-8.277c0.123,0.277,0.245,0.602,0.359,0.91  c0.449,1.218,1.008,2.733,2.455,3.546c0.625,0.351,1.358,0.529,2.179,0.529c0.503,0,0.991-0.07,1.462-0.152  c0.682,2.822,0.691,5.781,0.69,8.885c-0.001,3.893-0.001,7.919,1.4,11.883c0.244,0.688,0.843,1.189,1.564,1.307  c0.107,0.018,0.215,0.026,0.321,0.026c0.61,0,1.194-0.279,1.577-0.769c1.254-1.606,2.768-3.32,4.704-5.32  c2.429,1.582,4.713,2.938,7.09,4.211c0.729,0.39,1.621,0.293,2.248-0.245c0.626-0.538,0.858-1.406,0.583-2.185  c-1.173-3.316-1.172-6.83-1.172-10.549c0.001-3.297-0.008-6.689-0.859-10.058c0.047-0.039,0.096-0.069,0.141-0.111  c1.245-1.145,1.437-2.768,1.591-4.071c0.066-0.561,0.149-1.258,0.3-1.526c0.157-0.279,0.716-0.718,1.166-1.071  c1.026-0.805,2.303-1.808,2.633-3.447c0.329-1.627-0.456-3.04-1.085-4.175c-0.159-0.287-0.326-0.591-0.456-0.865l11.815-5.418  c3.301-1.514,5.366-4.799,5.137-8.187c-0.053-0.713-0.138-1.42-0.24-2.12c3.418-2.759,3.574-9.27,0.305-15.345  C89.04,12.201,83.401,8.645,78.958,10.158z M51.993,24.51c0.117-0.052,0.428-0.195,0.946,0.481c2.004,2.62,3.42,5.153,4.295,7.66  c-0.207-0.01-0.417-0.006-0.632,0.019c-1.628,0.189-2.72,1.362-3.598,2.304c-0.422,0.453-0.9,0.966-1.221,1.113  s-1.022,0.175-1.641,0.199c-0.923,0.036-2.007,0.085-2.991,0.516c-0.765-2.106-1.889-4.143-3.339-5.998  c-0.155-0.199-0.362-0.436-0.593-0.696c-0.185-0.209-0.505-0.573-0.769-0.918c-0.015-0.04-0.023-0.081-0.041-0.12  c-0.021-0.047-0.052-0.086-0.076-0.13L51.993,24.51z M26.981,67.901c-0.068,0.031-0.127,0.073-0.189,0.111  c-0.031,0.018-0.063,0.03-0.093,0.05c-1.939,1.311-4.058,1.177-5.493,0.833c-3.732-0.893-7.46-4.129-9.972-8.657  c-3.177-5.725-2.928-12.543,0.542-14.889c0.051-0.034,0.092-0.077,0.139-0.116c0.309-0.045,0.614-0.154,0.885-0.35  c0.119-0.086,0.247-0.148,0.375-0.21l0.193-0.089c0.511-0.192,1.095-0.216,1.773-0.06c2.464,0.565,5.315,3.268,7.264,6.885  c2.368,4.397,2.328,9.007,0.73,10.324l-0.448,0.205c-0.755,0.113-2.052-0.515-3.321-1.992c-0.72-0.837-1.981-0.933-2.82-0.214  c-0.838,0.72-0.934,1.982-0.214,2.82c1.911,2.225,4.165,3.413,6.211,3.413c0.359,0,0.708-0.05,1.051-0.124  c0.064-0.011,0.126-0.027,0.19-0.044c0.456-0.118,0.891-0.305,1.304-0.56l16.263-7.457c0.04,0.454,0.141,0.913,0.351,1.372  c0.281,0.613,0.684,1.087,1.141,1.475L26.981,67.901z M42.994,44.176c-1.025,0.805-2.302,1.808-2.633,3.446  c-0.329,1.627,0.456,3.04,1.085,4.175c0.244,0.438,0.504,0.916,0.613,1.259l-13.831,6.342c0.286-2.942-0.468-6.481-2.301-9.885  c-1.818-3.376-4.224-6.029-6.778-7.579l20.771-9.524c0.104,0.119,0.207,0.238,0.304,0.347c0.169,0.191,0.323,0.363,0.438,0.509  c1.72,2.2,2.889,4.686,3.38,7.19c0.069,0.351,0.227,0.661,0.444,0.914c-0.008,0.069-0.017,0.14-0.025,0.207  c-0.066,0.56-0.149,1.257-0.3,1.526C44.003,43.384,43.444,43.823,42.994,44.176z M64.302,79.843  c-0.795-0.532-1.856-0.428-2.533,0.251c-1.351,1.36-2.527,2.598-3.567,3.758c-0.308-2.216-0.308-4.514-0.307-6.897  c0.001-2.628-0.01-5.317-0.441-8.006c0.854,0.543,1.86,1.06,3.034,1.06c0.15,0,0.302-0.008,0.453-0.026  c1.628-0.189,2.72-1.362,3.597-2.304c0.422-0.453,0.9-0.966,1.221-1.114c0.321-0.147,1.022-0.174,1.64-0.198  c0.034-0.001,0.07-0.003,0.105-0.005c0.698,2.842,0.706,5.823,0.706,8.951c0,2.374-0.001,4.797,0.316,7.226  C67.153,81.711,65.762,80.823,64.302,79.843z M72.079,55.331c-0.767,0.602-1.636,1.284-2.183,2.258  c-0.542,0.964-0.671,2.054-0.785,3.014c-0.056,0.474-0.147,1.231-0.267,1.505c-0.196,0.008-0.393,0.034-0.588,0.103  c-0.089,0.031-0.169,0.076-0.25,0.118c-0.266,0.02-0.546,0.032-0.763,0.04c-0.989,0.039-2.111,0.082-3.152,0.559  c-1.042,0.478-1.807,1.299-2.481,2.024c-0.342,0.367-0.912,0.979-1.129,1.056c-0.268-0.013-0.993-0.501-1.427-0.794  c-0.802-0.541-1.712-1.154-2.796-1.373c-0.314-0.063-0.638-0.094-0.99-0.094c-0.114,0-0.224,0.021-0.338,0.027  c-0.321-0.053-0.659-0.037-0.988,0.078c-0.027,0.01-0.05,0.025-0.076,0.036c-0.253,0.043-0.509,0.087-0.743,0.133  c-0.522,0.103-1.016,0.2-1.379,0.2c-0.139,0-0.208-0.018-0.21-0.012c-0.201-0.175-0.494-0.97-0.67-1.447  c-0.339-0.918-0.722-1.96-1.485-2.789c-0.297-0.323-0.639-0.578-0.992-0.807c-0.043-0.03-0.085-0.061-0.131-0.088  c-0.487-0.3-0.995-0.543-1.472-0.762c-0.46-0.212-1.317-0.606-1.443-0.829c-0.088-0.246,0.171-1.152,0.312-1.639  c0.264-0.92,0.563-1.964,0.437-3.049c-0.13-1.118-0.668-2.088-1.144-2.943c-0.25-0.45-0.667-1.202-0.666-1.429  c0.09-0.245,0.776-0.784,1.186-1.105c0.767-0.602,1.636-1.285,2.183-2.258c0.542-0.965,0.671-2.054,0.785-3.015  c0.063-0.525,0.167-1.403,0.306-1.581c0.218-0.133,1.059-0.166,1.561-0.186c0.99-0.039,2.112-0.082,3.153-0.56  c1.041-0.477,1.806-1.298,2.481-2.023c0.343-0.368,0.917-0.984,1.124-1.056c0.247,0.004,0.908,0.44,1.35,0.738  c0.343,0.641,1.018,1.053,1.774,1.048c0.35,0.161,0.713,0.302,1.105,0.381c0.98,0.198,2.174,0.009,3.137-0.18  c0.522-0.103,1.016-0.2,1.379-0.2c0.14,0,0.209,0.014,0.21,0.012c0.201,0.175,0.494,0.97,0.67,1.447  c0.338,0.918,0.722,1.959,1.484,2.788c0.436,0.474,0.96,0.819,1.493,1.111c0.019,0.012,0.04,0.02,0.06,0.032  c0.351,0.189,0.705,0.36,1.043,0.515c0.46,0.212,1.316,0.606,1.443,0.829c0.088,0.246-0.172,1.153-0.312,1.64  c-0.145,0.506-0.294,1.051-0.384,1.617c-0.008,0.046-0.011,0.092-0.017,0.138c-0.058,0.422-0.088,0.852-0.037,1.293  c0.13,1.118,0.668,2.088,1.144,2.943c0.25,0.45,0.667,1.202,0.666,1.429C73.174,54.471,72.488,55.009,72.079,55.331z M85.789,40.937  l-9.575,4.39c0.004-0.599-0.093-1.214-0.374-1.827c-0.21-0.458-0.492-0.834-0.81-1.161l13.518-6.198  c0.016,0.176,0.041,0.351,0.054,0.526C88.72,38.396,87.589,40.111,85.789,40.937z M89.869,31.135l-0.725,0.333  c-0.009,0.004-0.018,0.008-0.027,0.012l-18.128,8.312c-0.189-0.307-0.381-0.815-0.555-1.286c-0.449-1.218-1.007-2.734-2.455-3.547  c-0.634-0.356-1.347-0.529-2.179-0.529c-0.753,0-1.496,0.146-2.151,0.275c-0.621,0.122-1.174,0.266-1.573,0.184  c-0.039-0.008-0.092-0.034-0.139-0.052c-0.631-3.493-2.112-6.94-4.507-10.454l22.693-10.405c2.151-0.778,6.195,1.607,9.011,6.837  C91.495,25.201,91.458,29.802,89.869,31.135z"></path><path d="M62.097,42.37c-2.394-0.889-4.988-0.792-7.308,0.272c-1.73,0.793-3.168,2.067-4.159,3.683  c-0.577,0.942-0.282,2.173,0.66,2.75c0.942,0.578,2.174,0.282,2.75-0.66c0.575-0.937,1.41-1.677,2.416-2.138  c1.348-0.618,2.857-0.674,4.248-0.158c1.391,0.517,2.497,1.543,3.116,2.892c0.618,1.349,0.674,2.857,0.158,4.248  c-0.517,1.391-1.543,2.498-2.892,3.116c-2.784,1.277-6.086,0.05-7.363-2.732c-0.082-0.179-0.153-0.359-0.215-0.542  c-0.354-1.046-1.487-1.61-2.535-1.254c-1.046,0.354-1.608,1.488-1.254,2.535c0.105,0.312,0.228,0.621,0.368,0.928  c1.606,3.501,5.077,5.571,8.699,5.571c1.33,0,2.681-0.279,3.967-0.869c2.32-1.063,4.086-2.967,4.975-5.359  c0.888-2.392,0.792-4.987-0.272-7.307C66.392,45.025,64.489,43.258,62.097,42.37z"></path></svg>