<svg height='300px' width='300px'  fill="#7a1d6c" xmlns="http://www.w3.org/2000/svg" xmlns:xlink="http://www.w3.org/1999/xlink" version="1.1" x="0px" y="0px" viewBox="0 0 100 100" enable-background="new 0 0 100 100" xml:space="preserve"><circle cx="57.257" cy="29.948" r="6.106"></circle><path d="M84.505,59.16c-1.66-20.421-11.33-26.685-13.207-27.715l-0.182-0.1c-2.988-1.65-6.746-0.567-8.396,2.419  c-0.886,1.605-0.979,3.431-0.414,5.035l-0.615,8.22h-5.411c-1.819,0-3.294,1.475-3.294,3.294s1.475,3.294,3.294,3.294h8.47  c1.725,0,3.156-1.33,3.285-3.049l0.345-4.587c1.307,2.272,2.698,5.774,3.452,10.993l-18.115,2.7  c-2.422,0.36-4.214,2.439-4.214,4.887v21.504c0,2.729,2.213,4.942,4.942,4.942c2.729,0,4.941-2.213,4.941-4.942V68.811l19.689-2.934  c0.477-0.071,0.923-0.21,1.339-0.401C82.99,64.561,84.737,62.012,84.505,59.16z"></path><path d="M89.154,31.993c-1.819,0-3.295,1.475-3.295,3.294v22.506c0,2.799-0.842,4.883-2.571,6.369  c-4.104,3.524-12.417,3.165-15.275,2.728c-1.791-0.278-3.477,0.952-3.756,2.748c-0.281,1.798,0.949,3.483,2.747,3.762  c0.117,0.019,0.831,0.124,1.928,0.212v15.511c0,1.364,1.106,2.471,2.471,2.471s2.472-1.107,2.472-2.471V73.702  c2.596-0.118,5.602-0.53,8.436-1.558v16.98c0,1.364,1.106,2.471,2.472,2.471c1.364,0,2.471-1.107,2.471-2.471V69.423  c0.103-0.083,0.209-0.161,0.311-0.247c3.196-2.735,4.886-6.672,4.886-11.382V35.287C92.448,33.467,90.973,31.993,89.154,31.993z"></path><polyline fill="none" stroke="#7a1d6c" stroke-width="5" stroke-linecap="round" stroke-miterlimit="10" points="10.052,31.935   10.052,73.489 27.704,73.489 "></polyline><line fill="none" stroke="#7a1d6c" stroke-width="5" stroke-linecap="round" stroke-miterlimit="10" x1="10.052" y1="73.489" x2="10.052" y2="89.771"></line><line fill="none" stroke="#7a1d6c" stroke-width="5" stroke-linecap="round" stroke-miterlimit="10" x1="28.299" y1="73.906" x2="28.299" y2="89.771"></line><polyline fill="none" stroke="#7a1d6c" stroke-width="12" stroke-linecap="round" stroke-linejoin="round" stroke-miterlimit="10" points="  37.125,86.17 37.125,64.749 19.818,64.749 19.818,39.5 "></polyline><circle cx="20.475" cy="25.498" r="6.641"></circle><line fill="none" stroke="#7a1d6c" stroke-width="11" stroke-linecap="round" stroke-miterlimit="10" x1="19.818" y1="40.424" x2="26.494" y2="48.933"></line><path d="M13.444,10.842v3.792c0,1.028,0.833,1.862,1.863,1.862h4.521l5.424,3.148l-1.608-3.148c1.028,0,1.862-0.834,1.862-1.862  v-3.792c0-1.028-0.833-1.861-1.862-1.861h-8.336C14.278,8.981,13.444,9.814,13.444,10.842z M21.396,12.642  c0-0.474,0.384-0.857,0.857-0.857h0.113c0.473,0,0.857,0.383,0.857,0.857c0,0.474-0.384,0.857-0.857,0.857h-0.113  C21.78,13.5,21.396,13.116,21.396,12.642z M18.537,12.642c0-0.474,0.385-0.857,0.858-0.857h0.112c0.474,0,0.858,0.383,0.858,0.857  c0,0.474-0.384,0.857-0.858,0.857h-0.112C18.922,13.5,18.537,13.116,18.537,12.642z M15.679,12.642c0-0.474,0.384-0.857,0.857-0.857  h0.113c0.474,0,0.857,0.383,0.857,0.857c0,0.474-0.384,0.857-0.857,0.857h-0.113C16.063,13.5,15.679,13.116,15.679,12.642z"></path><path d="M64.531,11.981h-8.336c-1.028,0-1.862,0.833-1.862,1.861v3.792c0,1.028,0.833,1.862,1.862,1.862l-1.608,3.148l5.424-3.148  h4.521c1.029,0,1.863-0.834,1.863-1.862v-3.792C66.394,12.814,65.561,11.981,64.531,11.981z M57.584,16.5h-0.113  c-0.473,0-0.857-0.384-0.857-0.857c0-0.474,0.384-0.857,0.857-0.857h0.113c0.474,0,0.857,0.383,0.857,0.857  C58.442,16.116,58.058,16.5,57.584,16.5z M60.443,16.5h-0.112c-0.474,0-0.858-0.384-0.858-0.857c0-0.474,0.384-0.857,0.858-0.857  h0.112c0.473,0,0.858,0.383,0.858,0.857C61.301,16.116,60.917,16.5,60.443,16.5z M63.302,16.5h-0.113  c-0.474,0-0.857-0.384-0.857-0.857c0-0.474,0.384-0.857,0.857-0.857h0.113c0.474,0,0.857,0.383,0.857,0.857  C64.16,16.116,63.776,16.5,63.302,16.5z"></path></svg>