<svg height='300px' width='300px'  fill="#7a1d6c" xmlns="http://www.w3.org/2000/svg" xmlns:xlink="http://www.w3.org/1999/xlink" xml:space="preserve" version="1.1" style="shape-rendering:geometricPrecision;text-rendering:geometricPrecision;image-rendering:optimizeQuality;" viewBox="0 0 333 333" x="0px" y="0px" fill-rule="evenodd" clip-rule="evenodd"><defs><style type="text/css">
   
    .fil0 {fill:#7a1d6c}
   
  </style></defs><g><path class="fil0" d="M50 10l153 -2 44 35 1 125c-3,2 -5,4 -8,6l-1 -117 -48 0 -1 -40 -131 1 3 255 59 -1 -10 8 0 1 0 0 -58 0 -3 -271zm215 153c9,-5 23,12 16,20l0 0 -16 -20 0 0zm-150 121l7 9 7 9 -26 18 -17 5 -4 -1 0 -4 9 -15 24 -21zm-1 4l-20 19 8 10 22 -16 -10 -13zm72 -65c6,8 12,15 18,23l-72 54c-5,-7 -10,-13 -15,-19l69 -58zm93 -38c-23,23 -47,42 -72,59l-18 -23c22,-20 46,-40 73,-56l5 6c-14,14 -37,32 -56,48l0 3 3 1c20,-15 42,-33 60,-44l5 6zm-30 33l1 61 -85 1 12 -9 64 0 -1 -46c3,-2 6,-4 9,-7zm-176 -130l153 -1 0 17 -153 1 0 -17zm0 37l153 -2 1 6 -154 1 0 -5zm1 89l117 -1c-1,2 -3,3 -4,4l0 0 -2 2 -111 1 0 -6zm0 -15l134 -1c-2,2 -4,4 -6,5l-128 2 0 -6zm0 -14l153 -2 0 0c-2,2 -4,4 -6,5l-147 2 0 -5zm0 -15l153 -2 0 5 -153 2 0 -5zm-1 -15l154 -2 0 5 -154 2 0 -5zm0 -15l154 -2 0 5 -154 2 0 -5zm126 -123l0 31 40 0 -40 -31z"></path></g></svg>