<svg height='300px' width='300px'  fill="#7a1d6c" xmlns="http://www.w3.org/2000/svg" xmlns:xlink="http://www.w3.org/1999/xlink" version="1.1" x="0px" y="0px" viewBox="0 0 100 100" style="enable-background:new 0 0 100 100;" xml:space="preserve"><g><g><path d="M56.3,45.4c0-9.3,7.6-16.9,16.9-16.9v-3.2V7.1H19.1c-5,0-9.1,4.1-9.1,9.1v67.5c0-5,4.1-9.1,9.1-9.1h54.1V62.3    C63.9,62.3,56.3,54.7,56.3,45.4z"></path></g><g><path d="M73.2,95H19.1c-6.2,0-11.3-5-11.3-11.3s5-11.3,11.3-11.3h54.1c1.2,0,2.1,0.9,2.1,2.1v18.3C75.3,94.1,74.4,95,73.2,95z     M19.1,76.7c-3.9,0-7,3.2-7,7s3.2,7,7,7h52V76.7H19.1z"></path></g><g><path d="M9.9,85.9c-1.2,0-2.1-0.9-2.1-2.1V16.3C7.8,10,12.9,5,19.1,5h54.1c1.2,0,2.1,0.9,2.1,2.1v21.4c0,1.2-0.9,2.1-2.1,2.1    c-8.1,0-14.8,6.6-14.8,14.8s6.6,14.8,14.8,14.8c1.2,0,2.1,0.9,2.1,2.1v12.3c0,1.2-0.9,2.1-2.1,2.1H19.1c-3.9,0-7,3.2-7,7    C12,84.9,11.1,85.9,9.9,85.9z M19.1,9.2c-3.9,0-7,3.2-7,7V75c1.9-1.5,4.4-2.5,7-2.5h52v-8.2c-9.5-1.1-16.9-9.1-16.9-18.9    s7.4-17.8,16.9-18.9V9.2H19.1z"></path></g><g><path d="M73.2,64.4c-10.5,0-19-8.5-19-19s8.5-19,19-19s19,8.5,19,19S83.7,64.4,73.2,64.4z M73.2,30.7c-8.1,0-14.8,6.6-14.8,14.8    s6.6,14.8,14.8,14.8S88,53.6,88,45.4S81.3,30.7,73.2,30.7z"></path></g><g><g><path d="M71.5,51.2c-2,0-3.9-0.8-5.3-2.2c-2.9-2.9-2.9-7.6,0-10.6c2.9-2.9,7.6-2.9,10.6,0c1.4,1.4,2.2,3.3,2.2,5.3     c0,2-0.8,3.9-2.2,5.3C75.4,50.4,73.5,51.2,71.5,51.2z M71.5,40.5c-0.8,0-1.7,0.3-2.3,1c-1.3,1.3-1.3,3.3,0,4.6     c1.2,1.2,3.4,1.2,4.6,0c0.6-0.6,1-1.4,1-2.3s-0.3-1.7-1-2.3C73.2,40.8,72.4,40.5,71.5,40.5z"></path></g><g><path d="M80.2,54.6c-0.5,0-1.1-0.2-1.5-0.6L73.8,49c-0.8-0.8-0.8-2.2,0-3s2.2-0.8,3,0l4.9,4.9c0.8,0.8,0.8,2.2,0,3     C81.3,54.4,80.8,54.6,80.2,54.6z"></path></g></g></g></svg>