<svg height='300px' width='300px'  fill="#7a1d6c" xmlns="http://www.w3.org/2000/svg" viewBox="0 0 96 96" x="0px" y="0px"><title>education 17</title><g data-name="Layer 18"><path d="M24.49,73.37a3.24,3.24,0,0,0-.19,1,3.13,3.13,0,0,0,.19,1H6.59v-2ZM49,60.47v15h5.27V60.85a.38.38,0,0,0-.38-.38Zm-7.21.38V75.42H47v-15H42.19A.38.38,0,0,0,41.81,60.85ZM10.67,38.46v6.11a.92.92,0,0,0,.92.92h4.3v-8h-4.3A.92.92,0,0,0,10.67,38.46Zm11.57-.92H17.93v8h4.31a.92.92,0,0,0,.91-.92V38.46A.92.92,0,0,0,22.24,37.54Zm0,17.92H17.93V63.4h4.31a.91.91,0,0,0,.91-.91V56.37A.91.91,0,0,0,22.24,55.46Zm-11.57.91v6.12a.92.92,0,0,0,.92.91h4.3V55.46h-4.3A.92.92,0,0,0,10.67,56.37ZM89.41,75.42v-2H71.86a3,3,0,0,1,.19,1,2.89,2.89,0,0,1-.19,1Zm-20.5-44H92.48a1,1,0,0,0,0-2.05H68.91Zm20.5,39.91H68.91V33.46h20.5Zm-2.32-15a3,3,0,0,0-3-2.95H73.48a3,3,0,0,0-3,2.95v6.12a3,3,0,0,0,3,3H84.13a3,3,0,0,0,3-3Zm0-17.91a3,3,0,0,0-3-3H73.48a3,3,0,0,0-3,3v6.11a3,3,0,0,0,3,3H84.13a3,3,0,0,0,3-3ZM72.56,56.37v6.12a.92.92,0,0,0,.92.91h4.3V55.46h-4.3A.92.92,0,0,0,72.56,56.37ZM84.13,37.54H79.82v8h4.31a.92.92,0,0,0,.91-.92V38.46A.92.92,0,0,0,84.13,37.54Zm-11.57.92v6.11a.92.92,0,0,0,.92.92h4.3v-8h-4.3A.92.92,0,0,0,72.56,38.46Zm11.57,17H79.82V63.4h4.31a.91.91,0,0,0,.91-.91V56.37A.91.91,0,0,0,84.13,55.46ZM62.78,71.38V56.12a.49.49,0,0,0-.49-.49H33.81a.49.49,0,0,0-.49.49V71.35a3.06,3.06,0,0,1,2.89,3.05,2.89,2.89,0,0,1-.19,1h3.75V60.85a2.42,2.42,0,0,1,2.42-2.43H53.91a2.43,2.43,0,0,1,2.42,2.43V75.42h4a3.13,3.13,0,0,1-.19-1A3.05,3.05,0,0,1,62.78,71.38Zm-2.14-46H56.33v8h4.31a.92.92,0,0,0,.91-.92V26.32A.92.92,0,0,0,60.64,25.4Zm-18.83,8H47v-8H41.81Zm7.26,0h5.22v-8H49.07Zm15.75,38V56.12a2.54,2.54,0,0,0-2.53-2.53H33.81a2.53,2.53,0,0,0-2.53,2.53V71.33h-2V20.58H66.86V71.33ZM56.33,41.52a3,3,0,0,0-2.95-3H42.72a3,3,0,0,0-2.95,3v6.12a3,3,0,0,0,2.95,3H53.38a3,3,0,0,0,2.95-3Zm7.26-15.2a3,3,0,0,0-3-3H35.46a3,3,0,0,0-3,3v6.11a3,3,0,0,0,3,3H60.64a3,3,0,0,0,3-3Zm-.38,49.1H69a1,1,0,0,0,0-2H63.21a1,1,0,1,0,0,2Zm-59.69-44H27.19V29.37H3.52a1,1,0,0,0,0,2.05ZM27.11,18.54H69a1,1,0,0,0,0-2.05H27.11a1,1,0,0,0,0,2.05ZM92.48,77.46h-89a1,1,0,0,0,0,2.05h89a1,1,0,0,0,0-2.05ZM27.19,71.33H6.59V33.46h20.6Zm-2-15a3,3,0,0,0-3-2.95H11.59a3,3,0,0,0-3,2.95v6.12a3,3,0,0,0,3,3H22.24a3,3,0,0,0,3-3Zm0-17.91a3,3,0,0,0-3-3H11.59a3,3,0,0,0-3,3v6.11a3,3,0,0,0,3,3H22.24a3,3,0,0,0,3-3Zm2.17,37h5.78a1,1,0,0,0,0-2H27.37a1,1,0,1,0,0,2Zm7.18-49.1v6.11a.92.92,0,0,0,.91.92h4.31v-8H35.46A.92.92,0,0,0,34.55,26.32Zm7.26,15.2v6.12a.91.91,0,0,0,.91.91H47V40.61H42.72A.91.91,0,0,0,41.81,41.52Zm11.57-.91H49.07v7.94h4.31a.91.91,0,0,0,.91-.91V41.52A.91.91,0,0,0,53.38,40.61Z"></path></g></svg>