<svg height='300px' width='300px'  fill="#7a1d6c" xmlns="http://www.w3.org/2000/svg" xmlns:xlink="http://www.w3.org/1999/xlink" version="1.1" x="0px" y="0px" viewBox="0 0 100 100" enable-background="new 0 0 100 100" xml:space="preserve"><path d="M80.3999023,8.7001953H19.6000977c-1.5439453,0-2.7998047,1.2558594-2.7998047,2.7998047v77  c0,1.5439453,1.2558594,2.7998047,2.7998047,2.7998047h60.7998047c1.5439453,0,2.7998047-1.2558594,2.7998047-2.7998047v-77  C83.199707,9.9560547,81.9438477,8.7001953,80.3999023,8.7001953z M81.6000977,88.5  c0,0.6616211-0.5385742,1.2001953-1.2001953,1.2001953H19.6000977c-0.6616211,0-1.2001953-0.5385742-1.2001953-1.2001953v-77  c0-0.6616211,0.5385742-1.2001953,1.2001953-1.2001953h60.7998047c0.6616211,0,1.2001953,0.5385742,1.2001953,1.2001953V88.5z   M73.75,16.5166016h-47.5v-1.7001953h47.5V16.5166016z M34.4033203,23.3037109  c-5.8745117,0-10.6533203,5.2290039-10.6533203,11.65625s4.7788086,11.65625,10.6533203,11.65625  s10.6533203-5.2290039,10.6533203-11.65625S40.277832,23.3037109,34.4033203,23.3037109z M39.5528564,43.8859863  c-0.3292236-0.0551758-0.6148682-0.0969238-0.8577881-0.1318359c-1.0877686-0.1555176-1.3140869-0.1882324-1.7275391-0.9399414  c-0.078125-0.1418457-0.1672363-0.4934082-0.1533203-1.3635254c1.2197266-1.1484375,2.0645752-2.6335449,2.3000488-3.5654297  c0.4597168-0.0246582,1.1157227-0.5402832,1.272583-1.1547852c0.1468506-0.5761719,0.1048584-1.0524902-0.1184082-1.3415527  c-0.1176758-0.1525879-0.2811279-0.2434082-0.4761963-0.2658691l0.0002441-0.0419922h-0.0568848  c-0.03125-0.0537109-0.0578613-0.1147461-0.0803223-0.1848145c0.0708008-0.5163574,0.1298828-1.041748,0.1785889-1.5939941  c0.0855713-0.4248047,0.1729736-0.878418,0.2183838-1.3452148c0.0507813-0.5209961,0.0356445-1.0087891-0.0446777-1.449707  l0.0036621-0.0861816l-0.0170898-0.119873l-0.0279541,0.0004883c-0.0736084-0.3076172-0.1815186-0.5839844-0.3212891-0.8227539  c-0.2186279-0.373291-0.5203857-0.6669922-0.7589111-0.8813477c-0.982666-0.8820801-2.154541-1.4863281-3.3891602-1.7475586  c-0.6380615-0.1350098-1.5788574-0.262207-2.3771973,0.1879883c-0.5446777,0.3071289-1.1201172,0.7380371-1.7576904,1.3164063  c-0.9215088-0.1330566-2.0396729,0.7080078-2.3525391,1.354248c-0.2390137,0.4938965-0.4973145,1.0898438-0.6002197,1.765625  c-0.2314453,1.5148926,0.0914307,2.5234375,0.7009277,3.6501465c-0.1733398,0.0231934-0.3205566,0.1010742-0.4332275,0.2304688  c-0.2438965,0.2805176-0.2969971,0.7817383-0.1455078,1.3754883c0.1551514,0.6083984,0.8087158,1.1247559,1.2669678,1.1540527  c0.2579346,1.0368652,1.144165,2.4387207,2.1922607,3.4616699c0.0228271,0.9433594-0.0692139,1.3190918-0.151001,1.4680176  c-0.4136963,0.751709-0.6400146,0.7844238-1.7277832,0.9399414c-0.243042,0.0349121-0.5288086,0.0766602-0.8579102,0.1318359  c-2.6674805-1.8842773-4.4443359-5.177002-4.4443359-8.9260254c0-5.8427734,4.3037109-10.5966797,9.59375-10.5966797  s9.59375,4.7539063,9.59375,10.5966797C43.9970703,38.7089844,42.2202148,42.001709,39.5528564,43.8859863z M40.5205078,53.6445313  v1H24.7163086v-1H40.5205078z M24.7163086,59.5893555h19.3745117v1H24.7163086V59.5893555z M40.3798828,65.5336914v1H24.7163086v-1  H40.3798828z M24.7163086,71.4780273h19.3745117v1H24.7163086V71.4780273z M51.3867188,74.4819336h22.3330078v1H51.3867188  V74.4819336z M51.3867188,80.4819336h22.3330078v1H51.3867188V80.4819336z M66.7199707,71.5H51.3864746v-2.666748h15.3334961V71.5z   M73.7197266,30.4819336H51.3867188v-1h22.3330078V30.4819336z M73.7197266,36.4819336H51.3867188v-1h22.3330078V36.4819336z   M73.7197266,42.4819336H51.3867188v-1h22.3330078V42.4819336z M66.7199707,26.5H51.3864746v-2.666748h15.3334961V26.5z   M51.3867188,54.1484375h22.3330078v1H51.3867188V54.1484375z M51.3867188,60.1484375h22.3330078v1H51.3867188V60.1484375z   M51.3864746,48.5h24.3334961v2.6669922H51.3864746V48.5z"></path></svg>